<svg xmlns="http://www.w3.org/2000/svg" xmlns:xlink="http://www.w3.org/1999/xlink" version="1.1" width="1000" height="1000" viewBox="0 0 1000 1000" xml:space="preserve">
<desc>Created with Fabric.js 3.5.0</desc>
<defs>
</defs>
<rect x="0" y="0" width="100%" height="100%" fill="none"/>
<g transform="matrix(8.0328 0 0 8.0328 494.243 498.9711)" id="904940">
<path style="stroke: none; stroke-width: 0; stroke-dasharray: none; stroke-linecap: butt; stroke-dashoffset: 0; stroke-linejoin: miter; stroke-miterlimit: 4; is-custom-font: none; font-file-url: none; fill: rgb(188,168,149); fill-rule: evenodd; opacity: 1;" vector-effect="non-scaling-stroke" transform=" translate(-61.44, -61.44)" d="M 61.44 0 c 33.93 0 61.44 27.51 61.44 61.44 s -27.51 61.44 -61.44 61.44 S 0 95.37 0 61.44 S 27.51 0 61.44 0 L 61.44 0 z" stroke-linecap="round"/>
</g>
<g transform="matrix(9.3087 0 0 8.6988 500.0002 482.274)" id="177347">
<g style="" vector-effect="non-scaling-stroke">
		<g transform="matrix(1 0 0 1 -0.0002 0.885)">
<path style="stroke: none; stroke-width: 1; stroke-dasharray: none; stroke-linecap: butt; stroke-dashoffset: 0; stroke-linejoin: miter; stroke-miterlimit: 4; is-custom-font: none; font-file-url: none; fill: rgb(255,103,0); fill-rule: nonzero; opacity: 1;" transform=" translate(-31.9997, -32.885)" d="M 63.563 60.924 c 0.003 -0.033 0.021 -0.061 0.021 -0.094 c 0 -0.27 -0.12 -0.54 -0.32 -0.73 l -0.08 -0.08 c -0.007 -0.004 -0.014 -0.006 -0.021 -0.01 l -2.233 -2.075 c -0.403 -0.375 -1.037 -0.353 -1.413 0.052 c -0.376 0.404 -0.353 1.037 0.052 1.413 l 0.463 0.431 h -3.048 v -18.35 c 0 -0.56 -0.45 -1 -1 -1 h -4.42 c -0.56 0 -1 0.44 -1 1 v 18.35 h -3.65 v -14.66 c 0 -0.56 -0.45 -1 -1 -1 h -4.42 c -0.56 0 -1 0.44 -1 1 v 14.66 h -3.65 v -9.13 c 0 -0.55 -0.45 -1 -1 -1 h -4.43 c -0.55 0 -1 0.45 -1 1 v 9.13 h -3.64 v -12.82 c 0 -0.55 -0.45 -1 -1 -1 h -4.43 c -0.55 0 -1 0.45 -1 1 v 12.82 h -3.65 v -5.44 c 0 -0.55 -0.44 -1 -1 -1 h -4.42 c -0.55 0 -1 0.45 -1 1 v 5.44 h -5.69 V 5.313 l 0.433 0.466 C 5.395 6.184 6.027 6.207 6.431 5.83 c 0.404 -0.376 0.427 -1.009 0.051 -1.413 L 4.314 2.085 C 4.305 2.074 4.29 2.071 4.279 2.061 C 4.24 2.025 4.201 1.99 4.154 1.959 c -0.03 -0.03 -0.07 -0.05 -0.11 -0.07 c -0.01 -0.01 -0.02 -0.01 -0.03 -0.01 c -0.001 -0.001 -0.002 0 -0.004 -0.001 C 3.977 1.862 3.942 1.854 3.906 1.842 C 3.888 1.837 3.867 1.829 3.854 1.829 c -0.05 -0.01 -0.08 -0.02 -0.13 -0.03 c -0.01 0 -0.02 0 -0.03 -0.01 c -0.04 -0.01 -0.07 -0.02 -0.11 -0.02 c -0.01 0 -0.03 0 -0.05 0.01 c -0.108 0.006 -0.21 0.032 -0.309 0.069 c -0.039 0.014 -0.072 0.036 -0.11 0.055 C 3.079 1.923 3.039 1.935 3.004 1.959 C 2.968 1.988 2.931 2.021 2.895 2.054 C 2.882 2.067 2.862 2.071 2.85 2.085 L 0.683 4.417 C 0.307 4.821 0.33 5.454 0.735 5.83 c 0.192 0.179 0.437 0.268 0.681 0.268 c 0.268 0 0.536 -0.107 0.732 -0.319 l 0.437 -0.47 v 55.521 c 0 0.55 0.45 1 1 1 h 7.59 c 0.03 0.01 0.07 0.01 0.1 0.01 s 0.07 0 0.1 -0.01 h 4.22 c 0.03 0.01 0.07 0.01 0.1 0.01 c 0.04 0 0.07 0 0.1 -0.01 h 5.45 c 0.03 0.01 0.07 0.01 0.1 0.01 c 0.03 0 0.07 0 0.1 -0.01 h 4.23 c 0.03 0.01 0.06 0.01 0.1 0.01 c 0.03 0 0.07 0 0.1 -0.01 h 5.44 c 0.03 0.01 0.07 0.01 0.1 0.01 c 0.04 0 0.07 0 0.1 -0.01 h 4.23 c 0.03 0.01 0.07 0.01 0.1 0.01 s 0.07 0 0.1 -0.01 h 5.45 c 0.03 0.01 0.06 0.01 0.1 0.01 c 0.03 0 0.07 0 0.1 -0.01 h 4.22 c 0.03 0.01 0.06 0.01 0.1 0.01 c 0.03 0 0.07 0 0.1 -0.01 h 5.45 c 0.03 0.01 0.07 0.01 0.1 0.01 c 0.03 0 0.07 0 0.1 -0.01 h 4.22 c 0.03 0.01 0.07 0.01 0.1 0.01 s 0.07 0 0.1 -0.01 h 3.957 l -0.472 0.439 c -0.405 0.376 -0.428 1.009 -0.052 1.413 c 0.197 0.212 0.464 0.319 0.732 0.319 c 0.244 0 0.488 -0.088 0.681 -0.268 l 2.319 -2.155 c 0.004 -0.004 0.011 -0.005 0.015 -0.009 c 0.05 -0.05 0.09 -0.1 0.13 -0.16 c 0.03 -0.037 0.053 -0.086 0.074 -0.134 C 63.524 61.166 63.552 61.047 63.563 60.924 z" stroke-linecap="round"/>
</g>
		<g transform="matrix(1 0 0 1 1.7995 -0.046)">
<path style="stroke: none; stroke-width: 1; stroke-dasharray: none; stroke-linecap: butt; stroke-dashoffset: 0; stroke-linejoin: miter; stroke-miterlimit: 4; is-custom-font: none; font-file-url: none; fill: rgb(255,103,0); fill-rule: nonzero; opacity: 1;" transform=" translate(-33.7995, -31.954)" d="M 13.834 42.369 c 1.74 0 3.16 -1.42 3.16 -3.16 c 0 -0.72 -0.24 -1.38 -0.65 -1.91 l 5.7 -6.85 c 0.45 0.25 0.96 0.39 1.51 0.39 c 0.76 0 1.46 -0.26 2 -0.71 l 4.99 5.29 c -0.05 0.23 -0.08 0.47 -0.08 0.72 c 0 1.75 1.42 3.17 3.17 3.17 c 1.74 0 3.16 -1.42 3.16 -3.17 c 0 -0.43 -0.09 -0.84 -0.24 -1.22 l 5.61 -7.46 c 0.46 0.26 0.98 0.41 1.54 0.41 c 0.629 0 1.218 -0.19 1.708 -0.509 l 5.65 4.993 c -0.299 0.479 -0.458 1.028 -0.458 1.626 c 0 1.75 1.42 3.16 3.17 3.16 c 1.74 0 3.16 -1.41 3.16 -3.16 c 0 -1.74 -1.42 -3.16 -3.16 -3.16 c -0.419 0 -0.798 0.08 -1.167 0.229 l -5.942 -5.25 c 0.13 -0.34 0.2 -0.709 0.2 -1.089 c 0 -1.75 -1.42 -3.17 -3.16 -3.17 c -1.75 0 -3.17 1.42 -3.17 3.17 c 0 0.44 0.09 0.86 0.26 1.24 l -5.6 7.45 c -0.46 -0.27 -0.99 -0.42 -1.56 -0.42 c -0.75 0 -1.44 0.26 -1.98 0.69 l -5.01 -5.28 c 0.05 -0.23 0.08 -0.47 0.08 -0.71 c 0 -1.75 -1.42 -3.17 -3.17 -3.17 c -1.74 0 -3.16 1.42 -3.16 3.17 c 0 0.46 0.1 0.89 0.28 1.28 l -5.98 7.21 c -0.27 -0.08 -0.56 -0.12 -0.86 -0.12 c -1.75 0 -3.17 1.41 -3.17 3.16 C 10.664 40.949 12.084 42.369 13.834 42.369 z" stroke-linecap="round"/>
</g>
		<g transform="matrix(1 0 0 1 1.0838 -20.356)">
<path style="stroke: none; stroke-width: 1; stroke-dasharray: none; stroke-linecap: butt; stroke-dashoffset: 0; stroke-linejoin: miter; stroke-miterlimit: 4; is-custom-font: none; font-file-url: none; fill: none; fill-rule: nonzero; opacity: 1;" transform=" translate(-33.0838, -11.644)" d="M 40.964 7.819 c 0.01 -0.15 0.02 -0.31 0.02 -0.46 c 0 -1.74 -0.68 -3.42 -1.94 -4.77 c -1.54 -1.65 -3.71 -2.59 -5.97 -2.59 c -2.13 0 -4.12 0.83 -5.62 2.34 c -1.48 1.49 -2.29 3.46 -2.27 5.55 c 0.03 4.42 5.74 12.52 7.88 15.4 C 35.144 20.419 40.654 12.409 40.964 7.819 z M 27.764 7.039 c 0 -2.93 2.39 -5.32 5.32 -5.32 s 5.31 2.39 5.31 5.32 s -2.38 5.31 -5.31 5.31 S 27.764 9.969 27.764 7.039 z" stroke-linecap="round"/>
</g>
		<g transform="matrix(1 0 0 1 1.079 -24.966)">
<path style="stroke: none; stroke-width: 1; stroke-dasharray: none; stroke-linecap: butt; stroke-dashoffset: 0; stroke-linejoin: miter; stroke-miterlimit: 4; is-custom-font: none; font-file-url: none; fill: none; fill-rule: nonzero; opacity: 1;" transform=" translate(-33.079, -7.034)" d="M 36.394 7.039 c 0 -1.83 -1.48 -3.32 -3.31 -3.32 c -1.83 0 -3.32 1.49 -3.32 3.32 s 1.49 3.31 3.32 3.31 C 34.914 10.349 36.394 8.869 36.394 7.039 z" stroke-linecap="round"/>
</g>
</g>
</g>
</svg>